<?xml version="1.0" encoding="utf-8"?>
<!-- Generator: Adobe Illustrator 19.2.1, SVG Export Plug-In . SVG Version: 6.00 Build 0)  -->
<svg version="1.1" id="Слой_1" xmlns="http://www.w3.org/2000/svg" xmlns:xlink="http://www.w3.org/1999/xlink" x="0px" y="0px"
	 viewBox="0 0 7 12.9" enable-background="new 0 0 7 12.9" xml:space="preserve">
<title>angle-right</title>
<desc>Created with Sketch.</desc>
<g id="Corporations">
	<g id="Corporation-Delete-director" transform="translate(-910.000000, -634.000000)">
		<g id="company_block" transform="translate(0.000000, 217.000000)">
			<g id="Group-3" transform="translate(898.000000, 408.000000)">
				<g id="angle-right" transform="translate(12.000000, 9.000000)">
					
						<g id="Group-2" transform="translate(3.500000, 6.500000) rotate(-270.000000) translate(-3.500000, -6.500000) translate(-2.500000, 3.500000)">
						<g id="Line">
							<path fill="#007AFF" d="M6.3,6.3c-0.2,0.2-0.5,0.2-0.7,0l-6-6c-0.2-0.2-0.2-0.5,0-0.7s0.5-0.2,0.7,0l6,6
								C6.4,5.8,6.4,6,6.4,6.1S6.4,6.3,6.3,6.3z"/>
						</g>
						<g id="Line-2">
							<path fill="#007AFF" d="M12.3,0.3l-6,6c-0.2,0.2-0.5,0.2-0.7,0c-0.2-0.2-0.2-0.5,0-0.7l6-6c0.2-0.2,0.5-0.2,0.7,0
								c0.1,0.1,0.1,0.3,0.1,0.4S12.4,0.4,12.3,0.3z"/>
						</g>
					</g>
				</g>
			</g>
		</g>
	</g>
</g>
</svg>
