<?xml version="1.0" encoding="utf-8"?>
<!-- Generator: Adobe Illustrator 21.1.0, SVG Export Plug-In . SVG Version: 6.00 Build 0)  -->
<svg version="1.1" id="Слой_1" xmlns="http://www.w3.org/2000/svg" xmlns:xlink="http://www.w3.org/1999/xlink" x="0px" y="0px"
	 viewBox="0 0 17 17" style="enable-background:new 0 0 17 17;" xml:space="preserve">
<style type="text/css">
	.st0{fill:#A5AFBA;}
</style>
<title>clock</title>
<desc>Created with Sketch.</desc>
<g id="Corporations">
	<g id="Corporation-Open" transform="translate(-854.000000, -189.000000)">
		<g id="Group-3" transform="translate(855.000000, 188.000000)">
			<g id="clock" transform="translate(0.000000, 2.000000)">
				<g id="Group-2">
					<g id="Oval">
						<path class="st0" d="M7.5,16C2.8,16-1,12.2-1,7.5C-1,2.8,2.8-1,7.5-1C12.2-1,16,2.8,16,7.5C16,12.2,12.2,16,7.5,16z M7.5,0
							C3.4,0,0,3.4,0,7.5S3.4,15,7.5,15S15,11.6,15,7.5S11.6,0,7.5,0z"/>
					</g>
					<g id="Line">
						<path class="st0" d="M9.4,10.1c-0.1,0-0.3-0.1-0.4-0.2L7.1,8C7,7.9,7,7.7,7,7.5V2.8c0-0.3,0.2-0.5,0.5-0.5S8,2.6,8,2.8v4.5
							l1.8,1.9c0.2,0.2,0.2,0.5,0,0.7C9.6,10.1,9.5,10.1,9.4,10.1z M7.9,7.3L7.9,7.3C7.9,7.3,7.9,7.3,7.9,7.3z"/>
					</g>
				</g>
			</g>
		</g>
	</g>
</g>
</svg>
