<?xml version="1.0" encoding="UTF-8"?>
<svg width="17px" height="17px" viewBox="0 0 17 17" version="1.1" xmlns="http://www.w3.org/2000/svg" xmlns:xlink="http://www.w3.org/1999/xlink">
    <!-- Generator: Sketch 49.1 (51147) - http://www.bohemiancoding.com/sketch -->
    <title>close</title>
    <desc>Created with Sketch.</desc>
    <defs></defs>
    <g id="Corporations" stroke="none" stroke-width="1" fill="none" fill-rule="evenodd">
        <g id="Corporation--Preview-and-finalize-2" transform="translate(-891.000000, -107.000000)" fill="#A5AFBA">
            <g id="popup" transform="translate(224.000000, 87.000000)">
                <g id="Group-9">
                    <g id="close" transform="translate(667.000000, 20.000000)">
                        <path d="M8.5,6.86752898 L15.0294332,0.338095818 C15.4802276,-0.112698606 16.2111098,-0.112698606 16.6619042,0.338095818 C17.1126986,0.788890242 17.1126986,1.51977241 16.6619042,1.97056684 L10.132471,8.5 L16.6619042,15.0294332 C17.1126986,15.4802276 17.1126986,16.2111098 16.6619042,16.6619042 C16.2111098,17.1126986 15.4802276,17.1126986 15.0294332,16.6619042 L8.5,10.132471 L1.97056684,16.6619042 C1.51977241,17.1126986 0.788890242,17.1126986 0.338095818,16.6619042 C-0.112698606,16.2111098 -0.112698606,15.4802276 0.338095818,15.0294332 L6.86752898,8.5 L0.338095818,1.97056684 C-0.112698606,1.51977241 -0.112698606,0.788890242 0.338095818,0.338095818 C0.788890242,-0.112698606 1.51977241,-0.112698606 1.97056684,0.338095818 L8.5,6.86752898 Z" id="Combined-Shape"></path>
                    </g>
                </g>
            </g>
        </g>
    </g>
</svg>