<?xml version="1.0" encoding="utf-8"?>
<!-- Generator: Adobe Illustrator 19.2.1, SVG Export Plug-In . SVG Version: 6.00 Build 0)  -->
<svg version="1.1" id="Слой_1" xmlns="http://www.w3.org/2000/svg" xmlns:xlink="http://www.w3.org/1999/xlink" x="0px" y="0px"
	 viewBox="0 0 65 82" enable-background="new 0 0 65 82" xml:space="preserve">
<title>file</title>
<desc>Created with Sketch.</desc>
<g id="Corporations">
	<g id="Corporation-History" transform="translate(-494.000000, -828.000000)">
		<g id="Group-7" transform="translate(0.000000, 222.000000)">
			<g id="submited" transform="translate(266.000000, 304.000000)">
				<g id="Group-2" transform="translate(0.000000, 261.000000)">
					<g id="Group-3" transform="translate(0.000000, 41.000000)">
						<g id="Group-Copy-2" transform="translate(228.000000, 0.000000)">
							<g id="doc-icon">
								<g id="file">
									<g>
										<g id="Rectangle-2">
											<path fill="#D8DCE1" d="M54.7,82H10.3c-3.2,0-4.6-0.3-6.2-1.1c-1.3-0.7-2.3-1.7-3-3c-0.8-1.5-1.1-3-1.1-6.2V10.3
												c0-3.2,0.2-4.6,1.1-6.2c0.7-1.3,1.7-2.3,3-3C5.6,0.2,7.1,0,10.3,0H43l22,22v49.7c0,3.2-0.3,4.6-1.1,6.2
												c-0.7,1.3-1.7,2.3-3,3C59.4,81.8,57.9,82,54.7,82z M10.3,2C7.1,2,6.1,2.3,5,2.8C4.1,3.3,3.3,4.1,2.8,5
												C2.3,6.1,2,7.1,2,10.3v61.5C2,74.9,2.3,76,2.8,77s1.3,1.7,2.2,2.2c1.1,0.6,2.1,0.8,5.2,0.8h44.5c3.1,0,4.2-0.3,5.2-0.8
												s1.7-1.3,2.2-2.2c0.6-1.1,0.8-2.1,0.8-5.2v-49L42.2,2H10.3z"/>
										</g>
										<g id="Line">
											<path fill="#D8DCE1" d="M65,22H49c-3.3,0-6-2.7-6-6V0L65,22z M45,4.8V16c0,2.2,1.8,4,4,4h11.2L45,4.8z"/>
										</g>
									</g>
									<g enable-background="new    ">
										<path fill="#A5AFBA" d="M28.3,71.8c-0.2-0.2-0.3-0.4-0.3-0.7s0.1-0.5,0.3-0.7c0.2-0.2,0.4-0.3,0.7-0.3
											c0.3,0,0.5,0.1,0.7,0.3c0.2,0.2,0.3,0.4,0.3,0.7c0,0.3-0.1,0.5-0.3,0.7c-0.2,0.2-0.4,0.3-0.7,0.3
											C28.7,72.1,28.5,72,28.3,71.8z"/>
										<path fill="#A5AFBA" d="M38.9,64.6c0.7,0.8,1,1.8,1,3.1c0,1.3-0.3,2.4-1,3.1c-0.6,0.8-1.5,1.2-2.6,1.2
											c-1.3,0-2.2-0.5-2.7-1.5l0,0v4.2H32V63.5h1.6v1.4l0,0c0.2-0.5,0.6-0.8,1.1-1.1c0.5-0.3,1-0.4,1.6-0.4
											C37.4,63.4,38.3,63.8,38.9,64.6z M37.6,69.9c0.4-0.5,0.6-1.2,0.6-2.1s-0.2-1.6-0.6-2.1c-0.4-0.5-1-0.8-1.7-0.8
											s-1.2,0.3-1.6,0.8c-0.4,0.5-0.6,1.2-0.6,2.1s0.2,1.6,0.6,2.1c0.4,0.5,1,0.8,1.6,0.8C36.6,70.6,37.1,70.4,37.6,69.9z"/>
										<path fill="#A5AFBA" d="M41.9,70.9c-0.7-0.8-1-1.8-1-3.1c0-1.3,0.3-2.3,1-3.1c0.7-0.8,1.5-1.2,2.6-1.2
											c1.3,0,2.2,0.5,2.7,1.5l0,0v-4.7h1.7V72h-1.6v-1.4l0,0c-0.5,1-1.4,1.5-2.7,1.5C43.4,72.1,42.5,71.7,41.9,70.9z M43.3,65.7
											c-0.4,0.5-0.6,1.2-0.6,2.1s0.2,1.6,0.6,2.1c0.4,0.5,1,0.8,1.6,0.8c0.7,0,1.2-0.3,1.6-0.8c0.4-0.5,0.6-1.2,0.6-2.1
											s-0.2-1.6-0.6-2.1c-0.4-0.5-1-0.8-1.6-0.8C44.2,64.9,43.7,65.1,43.3,65.7z"/>
										<path fill="#A5AFBA" d="M51.2,64.9H50v-1.3h1.2v-0.8c0-0.8,0.2-1.4,0.6-1.7c0.4-0.4,1-0.5,1.9-0.5c0.3,0,0.6,0,0.9,0.1V62
											c-0.2,0-0.4-0.1-0.6-0.1c-0.3,0-0.6,0.1-0.8,0.2C53,62.3,53,62.5,53,62.9v0.7h1.6v1.3H53V72h-1.7v-7.1H51.2z"/>
									</g>
								</g>
							</g>
						</g>
					</g>
				</g>
			</g>
		</g>
	</g>
</g>
</svg>
