<?xml version="1.0" encoding="UTF-8"?><!DOCTYPE svg PUBLIC "-//W3C//DTD SVG 1.1//EN" "http://www.w3.org/Graphics/SVG/1.1/DTD/svg11.dtd"><svg xmlns="http://www.w3.org/2000/svg"><symbol id="icon-angle-right" viewBox="0 0 7 13">
    <title>
        angle-right
    </title>
    <path d="M6.5 7c-.1 0-.3 0-.4-.1l-6-6C-.1.7-.1.4.1.2s.5-.2.7 0l6 6c.2.2.2.5 0 .7 0 .1-.2.1-.3.1z"/>
    <path d="M.5 13c-.1 0-.3 0-.4-.1-.2-.2-.2-.5 0-.7l6-6c.2-.2.5-.2.7 0s.2.5 0 .7l-6 6c0 .1-.2.1-.3.1z"/>
</symbol><symbol id="icon-check" viewBox="0 0 11 8">
    <title>
        Shape
    </title>
    <path d="M4 8c-.3 0-.5-.1-.7-.3l-3-3c-.4-.4-.4-1 0-1.4s1-.4 1.4 0L4 5.6 9.3.3c.4-.4 1-.4 1.4 0s.4 1 0 1.4l-6 6c-.2.2-.4.3-.7.3z"/>
</symbol><symbol id="icon-clock" viewBox="0 0 17 17">
    <style>
        .st0{fill:#a5afba}
    </style>
    <title>
        clock
    </title>
    <g id="Corporations">
        <g id="Corporation-Open" transform="translate(-854 -189)">
            <g id="Group-3" transform="translate(855 188)">
                <g id="clock" transform="translate(0 2)">
                    <g id="Group-2">
                        <path class="st0" d="M7.5 16C2.8 16-1 12.2-1 7.5S2.8-1 7.5-1 16 2.8 16 7.5 12.2 16 7.5 16zm0-16C3.4 0 0 3.4 0 7.5S3.4 15 7.5 15 15 11.6 15 7.5 11.6 0 7.5 0z" id="Oval"/>
                        <path class="st0" d="M9.4 10.1c-.1 0-.3-.1-.4-.2L7.1 8C7 7.9 7 7.7 7 7.5V2.8c0-.3.2-.5.5-.5s.5.3.5.5v4.5l1.8 1.9c.2.2.2.5 0 .7-.2.2-.3.2-.4.2zM7.9 7.3z" id="Line"/>
                    </g>
                </g>
            </g>
        </g>
    </g>
</symbol><symbol id="icon-close" viewBox="0 0 17 17">
    <title>
        close
    </title>
    <path d="M8.5 6.868l6.53-6.53a1.154 1.154 0 1 1 1.632 1.633L10.132 8.5l6.53 6.53a1.154 1.154 0 0 1-1.633 1.632L8.5 10.132l-6.53 6.53a1.154 1.154 0 0 1-1.632-1.633L6.868 8.5.338 1.97A1.154 1.154 0 0 1 1.971.339L8.5 6.868z" fill-rule="evenodd"/>
</symbol><symbol id="icon-search" viewBox="0 0 475.084 475.084">
    <path d="M464.524 412.846l-97.929-97.925c23.6-34.068 35.406-72.047 35.406-113.917 0-27.218-5.284-53.249-15.852-78.087-10.561-24.842-24.838-46.254-42.825-64.241-17.987-17.987-39.396-32.264-64.233-42.826C254.246 5.285 228.217.003 200.999.003c-27.216 0-53.247 5.282-78.085 15.847C98.072 26.412 76.66 40.689 58.673 58.676c-17.989 17.987-32.264 39.403-42.827 64.241C5.282 147.758 0 173.786 0 201.004c0 27.216 5.282 53.238 15.846 78.083 10.562 24.838 24.838 46.247 42.827 64.234 17.987 17.993 39.403 32.264 64.241 42.832 24.841 10.563 50.869 15.844 78.085 15.844 41.879 0 79.852-11.807 113.922-35.405l97.929 97.641c6.852 7.231 15.406 10.849 25.693 10.849 9.897 0 18.467-3.617 25.694-10.849 7.23-7.23 10.848-15.796 10.848-25.693.003-10.082-3.518-18.651-10.561-25.694zM291.363 291.358c-25.029 25.033-55.148 37.549-90.364 37.549-35.21 0-65.329-12.519-90.36-37.549-25.031-25.029-37.546-55.144-37.546-90.36 0-35.21 12.518-65.334 37.546-90.36 25.026-25.032 55.15-37.546 90.36-37.546 35.212 0 65.331 12.519 90.364 37.546 25.033 25.026 37.548 55.15 37.548 90.36 0 35.216-12.519 65.331-37.548 90.36z"/>
</symbol></svg>